<svg xmlns="http://www.w3.org/2000/svg" xmlns:xlink="http://www.w3.org/1999/xlink" viewBox="0,0,256,256" width="100px" height="100px"><g fill="none" fill-rule="nonzero" stroke="none" stroke-width="1" stroke-linecap="butt" stroke-linejoin="miter" stroke-miterlimit="10" stroke-dasharray="" stroke-dashoffset="0" font-family="none" font-weight="none" font-size="none" text-anchor="none" style="mix-blend-mode: normal"><g transform="scale(2.56,2.56)"><path d="M87.215,56.71c1.135,-2.155 1.785,-4.605 1.785,-7.21c0,-6.621 -4.159,-12.257 -10.001,-14.478c0,-0.007 0.001,-0.014 0.001,-0.022c0,-11.598 -9.402,-21 -21,-21c-9.784,0 -17.981,6.701 -20.313,15.757c-1.476,-0.485 -3.049,-0.757 -4.687,-0.757c-7.692,0 -14.023,5.793 -14.89,13.252c-5.204,1.101 -9.11,5.717 -9.11,11.248c0,6.351 5.149,11.5 11.5,11.5c0.177,0 0.352,-0.012 0.526,-0.022c-0.004,0.175 -0.026,0.346 -0.026,0.522c0,11.322 9.178,20.5 20.5,20.5c6.437,0 12.175,-2.972 15.934,-7.614c2.178,2.225 5.206,3.614 8.566,3.614c4.65,0 8.674,-2.65 10.666,-6.518c1.052,0.335 2.171,0.518 3.334,0.518c6.075,0 11,-4.925 11,-11c0,-3.311 -1.47,-6.273 -3.785,-8.29z" fill="#c7ede6"></path><path d="M77.5,60.5v0.5h3v-0.5c0,0 4.242,0 5.5,0c2.485,0 4.5,-2.015 4.5,-4.5c0,-2.333 -1.782,-4.229 -4.055,-4.455c0.022,-0.181 0.055,-0.358 0.055,-0.545c0,-2.485 -2.015,-4.5 -4.5,-4.5c-1.438,0 -2.703,0.686 -3.527,1.736c-0.14,-2.636 -2.302,-4.736 -4.973,-4.736c-2.761,0 -5,2.239 -5,5c0,0.446 0.077,0.87 0.187,1.282c-0.642,-0.777 -1.601,-1.282 -2.687,-1.282c-1.781,0 -3.234,1.335 -3.455,3.055c-0.181,-0.022 -0.358,-0.055 -0.545,-0.055c-2.485,0 -4.5,2.015 -4.5,4.5c0,2.485 2.015,4.5 4.5,4.5c2.485,0 9.5,0 9.5,0z" fill="#fdfcef"></path><path d="M73.5,43c-3.033,0 -5.5,2.467 -5.5,5.5c0,0.016 0,0.031 0,0.047c-0.602,-0.355 -1.29,-0.547 -2,-0.547c-1.831,0 -3.411,1.261 -3.858,3.005c-0.047,-0.003 -0.094,-0.005 -0.142,-0.005c-2.757,0 -5,2.243 -5,5c0,2.757 2.243,5 5,5h15.5c0.276,0 0.5,-0.224 0.5,-0.5c0,-0.276 -0.224,-0.5 -0.5,-0.5h-15.5c-2.206,0 -4,-1.794 -4,-4c0,-2.206 1.794,-4 4,-4c0.117,0 0.23,0.017 0.343,0.032l0.141,0.019c0.021,0.003 0.041,0.004 0.062,0.004c0.246,0 0.462,-0.185 0.495,-0.437c0.191,-1.493 1.463,-2.618 2.959,-2.618c0.885,0 1.723,0.401 2.301,1.1c0.098,0.118 0.241,0.182 0.386,0.182c0.078,0 0.156,-0.018 0.228,-0.056c0.209,-0.107 0.314,-0.346 0.254,-0.573c-0.115,-0.435 -0.169,-0.801 -0.169,-1.153c0,-2.481 2.019,-4.5 4.5,-4.5c2.381,0 4.347,1.872 4.474,4.263c0.011,0.208 0.15,0.387 0.349,0.45c0.05,0.016 0.101,0.024 0.152,0.024c0.15,0 0.296,-0.069 0.392,-0.192c0.771,-0.982 1.912,-1.545 3.133,-1.545c2.206,0 4,1.794 4,4c0,0.117 -0.017,0.23 -0.032,0.343l-0.019,0.141c-0.016,0.134 0.022,0.268 0.106,0.373c0.084,0.105 0.207,0.172 0.34,0.185c2.056,0.205 3.605,1.907 3.605,3.958c0,2.206 -1.794,4 -4,4h-5.5c-0.276,0 -0.5,0.224 -0.5,0.5c0,0.276 0.224,0.5 0.5,0.5h5.5c2.757,0 5,-2.243 5,-5c0,-2.397 -1.689,-4.413 -4.003,-4.877c0.002,-0.041 0.003,-0.082 0.003,-0.123c0,-2.757 -2.243,-5 -5,-5c-1.176,0 -2.293,0.416 -3.183,1.164c-0.598,-2.404 -2.762,-4.164 -5.317,-4.164z" fill="#472b29"></path><path d="M72,50c-1.403,0 -2.609,0.999 -2.913,2.341c-0.367,-0.222 -0.786,-0.341 -1.212,-0.341c-1.202,0 -2.198,0.897 -2.353,2.068c-0.203,-0.046 -0.396,-0.068 -0.584,-0.068c-1.529,0 -2.811,1.2 -2.918,2.732c-0.01,0.138 0.094,0.258 0.231,0.268c0.006,0 0.012,0 0.018,0c0.13,0 0.24,-0.101 0.249,-0.232c0.089,-1.271 1.151,-2.268 2.419,-2.268c0.229,0 0.47,0.042 0.738,0.127c0.022,0.007 0.045,0.01 0.067,0.01c0.055,0 0.11,-0.02 0.156,-0.054c0.064,-0.046 0.102,-0.128 0.102,-0.208c0,-1.034 0.841,-1.875 1.875,-1.875c0.447,0 0.885,0.168 1.231,0.473c0.047,0.041 0.106,0.063 0.165,0.063c0.032,0 0.063,-0.006 0.093,-0.019c0.088,-0.035 0.148,-0.117 0.155,-0.212c0.104,-1.293 1.193,-2.305 2.481,-2.305c0.208,0 0.425,0.034 0.682,0.107c0.023,0.007 0.047,0.01 0.07,0.01c0.109,0 0.207,-0.073 0.239,-0.182c0.038,-0.133 -0.039,-0.271 -0.172,-0.309c-0.302,-0.086 -0.563,-0.126 -0.819,-0.126zM85.883,51.5c-1.326,0 -2.508,0.897 -2.874,2.182c-0.038,0.133 0.039,0.271 0.172,0.309c0.024,0.006 0.047,0.009 0.069,0.009c0.109,0 0.209,-0.072 0.24,-0.182c0.305,-1.07 1.289,-1.818 2.393,-1.818c0.117,0 0.23,0.014 0.342,0.029c0.012,0.002 0.023,0.003 0.035,0.003c0.121,0 0.229,-0.092 0.246,-0.217c0.019,-0.137 -0.077,-0.263 -0.214,-0.281c-0.134,-0.018 -0.27,-0.034 -0.409,-0.034z" fill="#472b29"></path><path d="M15.5,51h-10c-0.276,0 -0.5,-0.224 -0.5,-0.5c0,-0.276 0.224,-0.5 0.5,-0.5h10c0.276,0 0.5,0.224 0.5,0.5c0,0.276 -0.223,0.5 -0.5,0.5zM18.5,51h-1c-0.276,0 -0.5,-0.224 -0.5,-0.5c0,-0.276 0.224,-0.5 0.5,-0.5h1c0.276,0 0.5,0.224 0.5,0.5c0,0.276 -0.223,0.5 -0.5,0.5zM23.491,53h-8.991c-0.276,0 -0.5,-0.224 -0.5,-0.5c0,-0.276 0.224,-0.5 0.5,-0.5h8.991c0.276,0 0.5,0.224 0.5,0.5c0,0.276 -0.224,0.5 -0.5,0.5zM12.5,53h-1c-0.276,0 -0.5,-0.224 -0.5,-0.5c0,-0.276 0.224,-0.5 0.5,-0.5h1c0.276,0 0.5,0.224 0.5,0.5c0,0.276 -0.223,0.5 -0.5,0.5zM9.5,53h-2c-0.276,0 -0.5,-0.224 -0.5,-0.5c0,-0.276 0.224,-0.5 0.5,-0.5h2c0.276,0 0.5,0.224 0.5,0.5c0,0.276 -0.223,0.5 -0.5,0.5zM15.5,55h-2c-0.276,0 -0.5,-0.224 -0.5,-0.5c0,-0.276 0.224,-0.5 0.5,-0.5h2c0.276,0 0.5,0.224 0.5,0.5c0,0.276 -0.224,0.5 -0.5,0.5zM18.5,46c-0.177,0 -0.823,0 -1,0c-0.276,0 -0.5,0.224 -0.5,0.5c0,0.276 0.224,0.5 0.5,0.5c0.177,0 0.823,0 1,0c0.276,0 0.5,-0.224 0.5,-0.5c0,-0.276 -0.224,-0.5 -0.5,-0.5zM18.5,48c-0.177,0 -4.823,0 -5,0c-0.276,0 -0.5,0.224 -0.5,0.5c0,0.276 0.224,0.5 0.5,0.5c0.177,0 4.823,0 5,0c0.276,0 0.5,-0.224 0.5,-0.5c0,-0.276 -0.224,-0.5 -0.5,-0.5zM23.5,50c-0.177,0 -2.823,0 -3,0c-0.276,0 -0.5,0.224 -0.5,0.5c0,0.276 0.224,0.5 0.5,0.5c0.177,0 2.823,0 3,0c0.276,0 0.5,-0.224 0.5,-0.5c0,-0.276 -0.224,-0.5 -0.5,-0.5z" fill="#ffffff"></path><g fill="#ffffff"><path d="M72.5,24h-10c-0.276,0 -0.5,-0.224 -0.5,-0.5c0,-0.276 0.224,-0.5 0.5,-0.5h10c0.276,0 0.5,0.224 0.5,0.5c0,0.276 -0.224,0.5 -0.5,0.5zM76.5,24h-2c-0.276,0 -0.5,-0.224 -0.5,-0.5c0,-0.276 0.224,-0.5 0.5,-0.5h2c0.276,0 0.5,0.224 0.5,0.5c0,0.276 -0.224,0.5 -0.5,0.5zM81.5,26h-10c-0.276,0 -0.5,-0.224 -0.5,-0.5c0,-0.276 0.224,-0.5 0.5,-0.5h10c0.276,0 0.5,0.224 0.5,0.5c0,0.276 -0.223,0.5 -0.5,0.5zM69.5,26h-1c-0.276,0 -0.5,-0.224 -0.5,-0.5c0,-0.276 0.224,-0.5 0.5,-0.5h1c0.276,0 0.5,0.224 0.5,0.5c0,0.276 -0.224,0.5 -0.5,0.5zM66.47,26h-1.97c-0.276,0 -0.5,-0.224 -0.5,-0.5c0,-0.276 0.224,-0.5 0.5,-0.5h1.97c0.276,0 0.5,0.224 0.5,0.5c0,0.276 -0.224,0.5 -0.5,0.5zM75.5,22h-5c-0.276,0 -0.5,-0.224 -0.5,-0.5c0,-0.276 0.224,-0.5 0.5,-0.5h5c0.276,0 0.5,0.224 0.5,0.5c0,0.276 -0.223,0.5 -0.5,0.5zM72.5,28h-2c-0.276,0 -0.5,-0.224 -0.5,-0.5c0,-0.276 0.224,-0.5 0.5,-0.5h2c0.276,0 0.5,0.224 0.5,0.5c0,0.276 -0.224,0.5 -0.5,0.5z"></path></g><g><path d="M52,26.75c-12.84062,0 -23.25,10.40938 -23.25,23.25c0,12.84062 10.40938,23.25 23.25,23.25c12.84062,0 23.25,-10.40938 23.25,-23.25c0,-12.84062 -10.40938,-23.25 -23.25,-23.25z" fill="#a3a3cd"></path><path d="M52,73.95c-13.206,0 -23.95,-10.744 -23.95,-23.95c0,-13.206 10.744,-23.95 23.95,-23.95c13.206,0 23.95,10.744 23.95,23.95c0,13.206 -10.744,23.95 -23.95,23.95zM52,27.45c-12.434,0 -22.55,10.115 -22.55,22.55c0,12.435 10.116,22.55 22.55,22.55c12.434,0 22.55,-10.115 22.55,-22.55c0,-12.435 -10.116,-22.55 -22.55,-22.55z" fill="#472b29"></path></g><g fill="#565fa1"><path d="M52,30.5c-10.76955,0 -19.5,8.73045 -19.5,19.5c0,10.76955 8.73045,19.5 19.5,19.5c10.76955,0 19.5,-8.73045 19.5,-19.5c0,-10.76955 -8.73045,-19.5 -19.5,-19.5z"></path></g><g fill="#472b29"><path d="M70.623,44.987c-0.214,0 -0.412,-0.138 -0.478,-0.353c-0.084,-0.275 -0.175,-0.548 -0.271,-0.816c-0.375,-1.048 -0.849,-2.069 -1.408,-3.036c-0.139,-0.239 -0.057,-0.545 0.182,-0.683c0.24,-0.142 0.545,-0.058 0.683,0.183c0.589,1.019 1.088,2.095 1.483,3.197c0.102,0.283 0.197,0.571 0.287,0.86c0.081,0.265 -0.067,0.544 -0.331,0.625c-0.049,0.016 -0.099,0.023 -0.147,0.023z"></path></g><g fill="#472b29"><path d="M52,70.035c-11.047,0 -20.035,-8.961 -20.035,-19.976c0,-11.014 8.987,-19.975 20.035,-19.975c5.734,0 11.204,2.457 15.007,6.74c0.287,0.323 0.564,0.657 0.831,1c0.169,0.218 0.13,0.532 -0.087,0.701c-0.217,0.173 -0.532,0.13 -0.702,-0.088c-0.253,-0.325 -0.516,-0.642 -0.789,-0.949c-3.614,-4.07 -8.811,-6.404 -14.259,-6.404c-10.496,0 -19.035,8.512 -19.035,18.975c0,10.463 8.538,18.976 19.034,18.976c10.496,0 19.035,-8.513 19.035,-18.976c0,-0.955 -0.072,-1.912 -0.213,-2.846c-0.041,-0.273 0.147,-0.528 0.42,-0.569c0.274,-0.043 0.528,0.146 0.569,0.419c0.149,0.983 0.224,1.991 0.224,2.996c0,11.015 -8.988,19.976 -20.035,19.976z"></path></g><g><path d="M36.5,73.5c0,0 1.567,0 3.5,0c1.933,0 3.5,-1.567 3.5,-3.5c0,-1.781 -1.335,-3.234 -3.055,-3.455c0.028,-0.179 0.055,-0.358 0.055,-0.545c0,-1.933 -1.567,-3.5 -3.5,-3.5c-1.032,0 -1.95,0.455 -2.59,1.165c-0.384,-1.808 -1.987,-3.165 -3.91,-3.165c-2.209,0 -4,1.791 -4,4c0,0.191 0.03,0.374 0.056,0.558c-0.428,-0.344 -0.964,-0.558 -1.556,-0.558c-1.228,0 -2.245,0.887 -2.455,2.055c-0.179,-0.028 -0.358,-0.055 -0.545,-0.055c-1.933,0 -3.5,1.567 -3.5,3.5c0,1.933 1.567,3.5 3.5,3.5c1.933,0 7.5,0 7.5,0v0.5h7z" fill="#fdfcef"></path><path d="M38.25,69c-0.138,0 -0.25,-0.112 -0.25,-0.25c0,-1.223 0.995,-2.218 2.218,-2.218c0.034,0.009 0.737,-0.001 1.244,0.136c0.133,0.036 0.212,0.173 0.176,0.306c-0.036,0.134 -0.173,0.213 -0.306,0.176c-0.444,-0.12 -1.1,-0.12 -1.113,-0.118c-0.948,0 -1.719,0.771 -1.719,1.718c0,0.138 -0.112,0.25 -0.25,0.25zM31.5,73c-0.27614,0 -0.5,0.22386 -0.5,0.5c0,0.27614 0.22386,0.5 0.5,0.5c0.27614,0 0.5,-0.22386 0.5,-0.5c0,-0.27614 -0.22386,-0.5 -0.5,-0.5z" fill="#472b29"></path><path d="M40,74h-3.5c-0.276,0 -0.5,-0.224 -0.5,-0.5c0,-0.276 0.224,-0.5 0.5,-0.5h3.5c1.654,0 3,-1.346 3,-3c0,-1.496 -1.125,-2.768 -2.618,-2.959c-0.134,-0.018 -0.255,-0.088 -0.336,-0.196c-0.081,-0.108 -0.115,-0.244 -0.094,-0.377c0.023,-0.154 0.048,-0.308 0.048,-0.468c0,-1.654 -1.346,-3 -3,-3c-0.85,0 -1.638,0.355 -2.219,1c-0.125,0.139 -0.321,0.198 -0.5,0.148c-0.182,-0.049 -0.321,-0.195 -0.36,-0.379c-0.341,-1.604 -1.78,-2.769 -3.421,-2.769c-1.93,0 -3.5,1.57 -3.5,3.5c0,0.143 0.021,0.28 0.041,0.418c0.029,0.203 -0.063,0.438 -0.242,0.54c-0.179,0.102 -0.396,0.118 -0.556,-0.01c-0.365,-0.293 -0.794,-0.448 -1.243,-0.448c-0.966,0 -1.792,0.691 -1.963,1.644c-0.048,0.267 -0.296,0.446 -0.569,0.405c-0.154,-0.024 -0.308,-0.049 -0.468,-0.049c-1.654,0 -3,1.346 -3,3c0,1.654 1.346,3 3,3h7.5c0.276,0 0.5,0.224 0.5,0.5c0,0.276 -0.224,0.5 -0.5,0.5h-7.5c-2.206,0 -4,-1.794 -4,-4c0,-2.206 1.794,-4 4,-4c0.059,0 0.116,0.002 0.174,0.006c0.414,-1.186 1.537,-2.006 2.826,-2.006c0.349,0 0.689,0.061 1.011,0.18c0.165,-2.333 2.115,-4.18 4.489,-4.18c1.831,0 3.466,1.127 4.153,2.774c0.68,-0.498 1.502,-0.774 2.347,-0.774c2.206,0 4,1.794 4,4c0,0.048 -0.001,0.095 -0.004,0.142c1.743,0.448 3.004,2.027 3.004,3.858c0,2.206 -1.794,4 -4,4z" fill="#472b29"></path><path d="M34.5,73c-0.159,0 -0.841,0 -1,0c-0.276,0 -0.5,0.224 -0.5,0.5c0,0.276 0.224,0.5 0.5,0.5c0.159,0 0.841,0 1,0c0.276,0 0.5,-0.224 0.5,-0.5c0,-0.276 -0.224,-0.5 -0.5,-0.5z" fill="#472b29"></path></g><g><path d="M63.54,41.83c0.285,-1.585 0.115,-3.499 -0.525,-5.417c-3.22,0 -5.701,2.19 -6.124,2.588h-9.214c-0.424,-0.397 -2.904,-2.588 -6.124,-2.588c-0.576,1.728 -0.77,3.45 -0.597,4.934c-1.812,1.645 -2.956,4.012 -2.956,6.653c0,4.971 4.029,9 9,9h1.835c-1.441,0.66 -2.493,2 -2.756,3.615c-1.619,0.165 -3.578,0.015 -4.526,-1.407c-1.77,-2.655 -2.655,-2.655 -3.54,-2.655c-0.885,0 -0.885,0.885 0,1.77c0.885,0.885 0.885,0.885 1.77,2.655c0.729,1.458 2.612,3.109 6.218,2.661v3.331c0,0.652 0.017,1.129 0.25,1.696c2.167,0.75 6.296,1.312 11.418,0.031c0.206,-0.538 0.331,-1.116 0.331,-1.727v-5.575c0,-1.956 -1.166,-3.631 -2.835,-4.396h1.835c4.971,0 9,-4.029 9,-9c0,-2.39 -0.939,-4.558 -2.46,-6.169z" fill="#fefdef"></path><path d="M51.699,69.961c-2.909,0 -4.878,-0.567 -5.612,-0.821c-0.135,-0.047 -0.244,-0.149 -0.299,-0.282c-0.267,-0.649 -0.288,-1.191 -0.288,-1.887v-2.78c-4.171,0.297 -5.766,-2.19 -6.165,-2.988c-0.849,-1.698 -0.849,-1.698 -1.676,-2.525c-0.688,-0.688 -0.961,-1.433 -0.73,-1.99c0.167,-0.402 0.562,-0.634 1.083,-0.634c1.193,0 2.175,0.206 3.956,2.878c0.755,1.132 2.356,1.297 3.694,1.218c0.246,-1.025 0.785,-1.942 1.54,-2.648h-0.202c-5.238,0 -9.5,-4.262 -9.5,-9.5c0,-2.578 1.066,-5.06 2.933,-6.851c-0.136,-1.528 0.085,-3.215 0.646,-4.896c0.068,-0.204 0.259,-0.342 0.474,-0.342c3.13,0 5.579,1.933 6.318,2.588h8.827c0.739,-0.655 3.188,-2.588 6.317,-2.588c0.215,0 0.406,0.138 0.474,0.342c0.623,1.866 0.827,3.778 0.584,5.417c1.567,1.747 2.427,3.984 2.427,6.328c0,5.238 -4.262,9.5 -9.5,9.5h-0.201c1.065,0.994 1.701,2.4 1.701,3.896v5.575c0,0.633 -0.123,1.273 -0.365,1.905c-0.058,0.152 -0.187,0.267 -0.346,0.307c-2.318,0.58 -4.369,0.778 -6.09,0.778zM46.636,68.269c1.339,0.423 5.168,1.322 10.651,0.007c0.142,-0.437 0.213,-0.874 0.213,-1.305v-5.575c0,-1.688 -0.998,-3.234 -2.543,-3.94c-0.214,-0.099 -0.331,-0.332 -0.281,-0.562c0.05,-0.229 0.253,-0.394 0.489,-0.394h1.835c4.687,0 8.5,-3.813 8.5,-8.5c0,-2.17 -0.825,-4.239 -2.324,-5.827c-0.109,-0.115 -0.156,-0.275 -0.128,-0.431c0.257,-1.431 0.116,-3.13 -0.396,-4.82c-2.837,0.153 -5,2.05 -5.42,2.442c-0.092,0.087 -0.215,0.136 -0.342,0.136h-9.214c-0.127,0 -0.25,-0.049 -0.342,-0.136c-0.419,-0.393 -2.583,-2.289 -5.42,-2.442c-0.459,1.518 -0.62,3.02 -0.462,4.366c0.019,0.16 -0.041,0.319 -0.16,0.428c-1.774,1.612 -2.792,3.903 -2.792,6.284c0,4.687 3.813,8.5 8.5,8.5h1.835c0.235,0 0.438,0.164 0.488,0.394c0.05,0.229 -0.066,0.463 -0.28,0.561c-1.315,0.603 -2.239,1.814 -2.471,3.241c-0.037,0.224 -0.218,0.395 -0.443,0.417c-2.395,0.243 -4.122,-0.32 -4.993,-1.627c-1.622,-2.433 -2.352,-2.433 -3.124,-2.433c-0.127,0 -0.169,0.028 -0.169,0.029c-0.019,0.059 0.054,0.418 0.523,0.888c0.943,0.942 0.977,1.012 1.864,2.785c0.343,0.685 1.769,2.884 5.709,2.389c0.142,-0.019 0.286,0.026 0.393,0.121c0.107,0.095 0.169,0.231 0.169,0.375v3.331c-0.001,0.525 0.009,0.899 0.135,1.298z" fill="#472b29"></path></g><g><path d="M63.098,50.905c-0.852,1.888 -2.722,3.456 -6.014,3.72" fill="#fefdef"></path><path d="M57.083,54.875c-0.129,0 -0.238,-0.1 -0.249,-0.23c-0.011,-0.137 0.091,-0.258 0.229,-0.269c3.596,-0.288 5.142,-2.103 5.806,-3.573c0.057,-0.127 0.204,-0.183 0.331,-0.125c0.125,0.057 0.182,0.204 0.125,0.33c-1.017,2.254 -3.227,3.627 -6.222,3.866c-0.006,0.001 -0.013,0.001 -0.02,0.001z" fill="#472b29"></path></g><g><path d="M63.592,47.165c0.105,0.713 0.103,1.469 -0.028,2.217" fill="#fefdef"></path><path d="M63.564,49.632c-0.015,0 -0.029,-0.001 -0.044,-0.004c-0.136,-0.023 -0.227,-0.153 -0.203,-0.289c0.122,-0.693 0.131,-1.432 0.027,-2.138c-0.021,-0.136 0.074,-0.264 0.21,-0.283c0.133,-0.018 0.264,0.074 0.284,0.211c0.114,0.768 0.104,1.541 -0.029,2.296c-0.02,0.122 -0.126,0.207 -0.245,0.207z" fill="#472b29"></path></g><g><path d="M61.816,43.819c0.599,0.426 1.085,1.116 1.408,1.946" fill="#fefdef"></path><path d="M63.224,46.015c-0.1,0 -0.194,-0.061 -0.233,-0.159c-0.315,-0.809 -0.771,-1.442 -1.32,-1.832c-0.112,-0.08 -0.139,-0.236 -0.059,-0.349c0.081,-0.113 0.237,-0.14 0.349,-0.06c0.628,0.447 1.146,1.159 1.496,2.059c0.05,0.129 -0.014,0.273 -0.142,0.324c-0.03,0.011 -0.061,0.017 -0.091,0.017z" fill="#472b29"></path></g></g></g></svg>